solid OpenSCAD_Model
  facet normal 0.998027 0.0627918 0
    outer loop
      vertex 4 0 1.5
      vertex 3.96846 0.501332 -1.5
      vertex 3.96846 0.501332 1.5
    endloop
  endfacet
  facet normal 0.998027 0.0627918 0
    outer loop
      vertex 3.96846 0.501332 -1.5
      vertex 4 0 1.5
      vertex 4 0 -1.5
    endloop
  endfacet
  facet normal -0.998027 0.0627918 0
    outer loop
      vertex -4 0 -1.5
      vertex -3.96846 0.501332 1.5
      vertex -3.96846 0.501332 -1.5
    endloop
  endfacet
  facet normal -0.998027 0.0627918 0
    outer loop
      vertex -3.96846 0.501332 1.5
      vertex -4 0 -1.5
      vertex -4 0 1.5
    endloop
  endfacet
  facet normal 0 1 -0
    outer loop
      vertex 0.251162 3.99211 -1.5
      vertex -0.251162 3.99211 1.5
      vertex 0.251162 3.99211 1.5
    endloop
  endfacet
  facet normal 0 1 0
    outer loop
      vertex -0.251162 3.99211 1.5
      vertex 0.251162 3.99211 -1.5
      vertex -0.251162 3.99211 -1.5
    endloop
  endfacet
  facet normal 0 -1 0
    outer loop
      vertex -0.251162 -3.99211 -1.5
      vertex 0.251162 -3.99211 1.5
      vertex -0.251162 -3.99211 1.5
    endloop
  endfacet
  facet normal 0 -1 -0
    outer loop
      vertex 0.251162 -3.99211 1.5
      vertex -0.251162 -3.99211 -1.5
      vertex 0.251162 -3.99211 -1.5
    endloop
  endfacet
  facet normal 0.684546 0.72897 -0
    outer loop
      vertex 2.91587 2.73819 -1.5
      vertex 2.5497 3.08205 1.5
      vertex 2.91587 2.73819 1.5
    endloop
  endfacet
  facet normal 0.684546 0.72897 0
    outer loop
      vertex 2.5497 3.08205 1.5
      vertex 2.91587 2.73819 -1.5
      vertex 2.5497 3.08205 -1.5
    endloop
  endfacet
  facet normal -0.684546 0.72897 0
    outer loop
      vertex -2.5497 3.08205 -1.5
      vertex -2.91587 2.73819 1.5
      vertex -2.5497 3.08205 1.5
    endloop
  endfacet
  facet normal -0.684546 0.72897 0
    outer loop
      vertex -2.91587 2.73819 1.5
      vertex -2.5497 3.08205 -1.5
      vertex -2.91587 2.73819 -1.5
    endloop
  endfacet
  facet normal -0.368126 0.929776 0
    outer loop
      vertex -1.23607 3.80423 -1.5
      vertex -1.70312 3.61931 1.5
      vertex -1.23607 3.80423 1.5
    endloop
  endfacet
  facet normal -0.368126 0.929776 0
    outer loop
      vertex -1.70312 3.61931 1.5
      vertex -1.23607 3.80423 -1.5
      vertex -1.70312 3.61931 -1.5
    endloop
  endfacet
  facet normal 0.904827 0.42578 0
    outer loop
      vertex 3.71911 1.4725 1.5
      vertex 3.50523 1.92701 -1.5
      vertex 3.50523 1.92701 1.5
    endloop
  endfacet
  facet normal 0.904827 0.42578 0
    outer loop
      vertex 3.50523 1.92701 -1.5
      vertex 3.71911 1.4725 1.5
      vertex 3.71911 1.4725 -1.5
    endloop
  endfacet
  facet normal 0.844328 0.535826 0
    outer loop
      vertex 3.50523 1.92701 1.5
      vertex 3.23607 2.35114 -1.5
      vertex 3.23607 2.35114 1.5
    endloop
  endfacet
  facet normal 0.844328 0.535826 0
    outer loop
      vertex 3.23607 2.35114 -1.5
      vertex 3.50523 1.92701 1.5
      vertex 3.50523 1.92701 -1.5
    endloop
  endfacet
  facet normal 0.368126 0.929776 -0
    outer loop
      vertex 1.70312 3.61931 -1.5
      vertex 1.23607 3.80423 1.5
      vertex 1.70312 3.61931 1.5
    endloop
  endfacet
  facet normal 0.368126 0.929776 0
    outer loop
      vertex 1.23607 3.80423 1.5
      vertex 1.70312 3.61931 -1.5
      vertex 1.23607 3.80423 -1.5
    endloop
  endfacet
  facet normal 0.24869 0.968583 -0
    outer loop
      vertex 1.23607 3.80423 -1.5
      vertex 0.749525 3.92915 1.5
      vertex 1.23607 3.80423 1.5
    endloop
  endfacet
  facet normal 0.24869 0.968583 0
    outer loop
      vertex 0.749525 3.92915 1.5
      vertex 1.23607 3.80423 -1.5
      vertex 0.749525 3.92915 -1.5
    endloop
  endfacet
  facet normal 0.587785 0.809017 -0
    outer loop
      vertex 2.5497 3.08205 -1.5
      vertex 2.14331 3.37731 1.5
      vertex 2.5497 3.08205 1.5
    endloop
  endfacet
  facet normal 0.587785 0.809017 0
    outer loop
      vertex 2.14331 3.37731 1.5
      vertex 2.5497 3.08205 -1.5
      vertex 2.14331 3.37731 -1.5
    endloop
  endfacet
  facet normal -0.904827 0.42578 0
    outer loop
      vertex -3.71911 1.4725 -1.5
      vertex -3.50523 1.92701 1.5
      vertex -3.50523 1.92701 -1.5
    endloop
  endfacet
  facet normal -0.904827 0.42578 0
    outer loop
      vertex -3.50523 1.92701 1.5
      vertex -3.71911 1.4725 -1.5
      vertex -3.71911 1.4725 1.5
    endloop
  endfacet
  facet normal -0.770513 0.637424 0
    outer loop
      vertex -3.23607 2.35114 -1.5
      vertex -2.91587 2.73819 1.5
      vertex -2.91587 2.73819 -1.5
    endloop
  endfacet
  facet normal -0.770513 0.637424 0
    outer loop
      vertex -2.91587 2.73819 1.5
      vertex -3.23607 2.35114 -1.5
      vertex -3.23607 2.35114 1.5
    endloop
  endfacet
  facet normal -0.951057 0.309017 0
    outer loop
      vertex -3.87433 0.994759 -1.5
      vertex -3.71911 1.4725 1.5
      vertex -3.71911 1.4725 -1.5
    endloop
  endfacet
  facet normal -0.951057 0.309017 0
    outer loop
      vertex -3.71911 1.4725 1.5
      vertex -3.87433 0.994759 -1.5
      vertex -3.87433 0.994759 1.5
    endloop
  endfacet
  facet normal -0.481754 0.876307 0
    outer loop
      vertex -1.70312 3.61931 -1.5
      vertex -2.14331 3.37731 1.5
      vertex -1.70312 3.61931 1.5
    endloop
  endfacet
  facet normal -0.481754 0.876307 0
    outer loop
      vertex -2.14331 3.37731 1.5
      vertex -1.70312 3.61931 -1.5
      vertex -2.14331 3.37731 -1.5
    endloop
  endfacet
  facet normal -0.24869 0.968583 0
    outer loop
      vertex -0.749525 3.92915 -1.5
      vertex -1.23607 3.80423 1.5
      vertex -0.749525 3.92915 1.5
    endloop
  endfacet
  facet normal -0.24869 0.968583 0
    outer loop
      vertex -1.23607 3.80423 1.5
      vertex -0.749525 3.92915 -1.5
      vertex -1.23607 3.80423 -1.5
    endloop
  endfacet
  facet normal 0.125333 -0.992115 0
    outer loop
      vertex 0.251162 -3.99211 -1.5
      vertex 0.749525 -3.92915 1.5
      vertex 0.251162 -3.99211 1.5
    endloop
  endfacet
  facet normal 0.125333 -0.992115 0
    outer loop
      vertex 0.749525 -3.92915 1.5
      vertex 0.251162 -3.99211 -1.5
      vertex 0.749525 -3.92915 -1.5
    endloop
  endfacet
  facet normal 0.951057 0.309017 0
    outer loop
      vertex 3.87433 0.994759 1.5
      vertex 3.71911 1.4725 -1.5
      vertex 3.71911 1.4725 1.5
    endloop
  endfacet
  facet normal 0.951057 0.309017 0
    outer loop
      vertex 3.71911 1.4725 -1.5
      vertex 3.87433 0.994759 1.5
      vertex 3.87433 0.994759 -1.5
    endloop
  endfacet
  facet normal 0.982287 0.187381 0
    outer loop
      vertex 3.96846 0.501332 1.5
      vertex 3.87433 0.994759 -1.5
      vertex 3.87433 0.994759 1.5
    endloop
  endfacet
  facet normal 0.982287 0.187381 0
    outer loop
      vertex 3.87433 0.994759 -1.5
      vertex 3.96846 0.501332 1.5
      vertex 3.96846 0.501332 -1.5
    endloop
  endfacet
  facet normal 0.770513 0.637424 0
    outer loop
      vertex 3.23607 2.35114 1.5
      vertex 2.91587 2.73819 -1.5
      vertex 2.91587 2.73819 1.5
    endloop
  endfacet
  facet normal 0.770513 0.637424 0
    outer loop
      vertex 2.91587 2.73819 -1.5
      vertex 3.23607 2.35114 1.5
      vertex 3.23607 2.35114 -1.5
    endloop
  endfacet
  facet normal 0.125333 0.992115 -0
    outer loop
      vertex 0.749525 3.92915 -1.5
      vertex 0.251162 3.99211 1.5
      vertex 0.749525 3.92915 1.5
    endloop
  endfacet
  facet normal 0.125333 0.992115 0
    outer loop
      vertex 0.251162 3.99211 1.5
      vertex 0.749525 3.92915 -1.5
      vertex 0.251162 3.99211 -1.5
    endloop
  endfacet
  facet normal 0.481754 0.876307 -0
    outer loop
      vertex 2.14331 3.37731 -1.5
      vertex 1.70312 3.61931 1.5
      vertex 2.14331 3.37731 1.5
    endloop
  endfacet
  facet normal 0.481754 0.876307 0
    outer loop
      vertex 1.70312 3.61931 1.5
      vertex 2.14331 3.37731 -1.5
      vertex 1.70312 3.61931 -1.5
    endloop
  endfacet
  facet normal -0.844328 0.535826 0
    outer loop
      vertex -3.50523 1.92701 -1.5
      vertex -3.23607 2.35114 1.5
      vertex -3.23607 2.35114 -1.5
    endloop
  endfacet
  facet normal -0.844328 0.535826 0
    outer loop
      vertex -3.23607 2.35114 1.5
      vertex -3.50523 1.92701 -1.5
      vertex -3.50523 1.92701 1.5
    endloop
  endfacet
  facet normal -0.982287 0.187381 0
    outer loop
      vertex -3.96846 0.501332 -1.5
      vertex -3.87433 0.994759 1.5
      vertex -3.87433 0.994759 -1.5
    endloop
  endfacet
  facet normal -0.982287 0.187381 0
    outer loop
      vertex -3.87433 0.994759 1.5
      vertex -3.96846 0.501332 -1.5
      vertex -3.96846 0.501332 1.5
    endloop
  endfacet
  facet normal 0 0 1
    outer loop
      vertex 2.1 0 1.5
      vertex 4 0 1.5
      vertex 3.96846 0.501332 1.5
    endloop
  endfacet
  facet normal 0 0 1
    outer loop
      vertex 2.08344 0.263199 1.5
      vertex 3.96846 0.501332 1.5
      vertex 3.87433 0.994759 1.5
    endloop
  endfacet
  facet normal 0 0 1
    outer loop
      vertex 4 0 1.5
      vertex 2.1 0 1.5
      vertex 3.96846 -0.501332 1.5
    endloop
  endfacet
  facet normal 0 0 1
    outer loop
      vertex 2.03402 0.522248 1.5
      vertex 3.87433 0.994759 1.5
      vertex 3.71911 1.4725 1.5
    endloop
  endfacet
  facet normal -0 0 1
    outer loop
      vertex 2.08344 -0.263199 1.5
      vertex 3.96846 -0.501332 1.5
      vertex 2.1 0 1.5
    endloop
  endfacet
  facet normal 0 0 1
    outer loop
      vertex 1.95253 0.773061 1.5
      vertex 3.71911 1.4725 1.5
      vertex 3.50523 1.92701 1.5
    endloop
  endfacet
  facet normal 0 0 1
    outer loop
      vertex 3.96846 -0.501332 1.5
      vertex 2.08344 -0.263199 1.5
      vertex 3.87433 -0.994759 1.5
    endloop
  endfacet
  facet normal 0 0 1
    outer loop
      vertex 1.84024 1.01168 1.5
      vertex 3.50523 1.92701 1.5
      vertex 3.23607 2.35114 1.5
    endloop
  endfacet
  facet normal -0 0 1
    outer loop
      vertex 2.03402 -0.522248 1.5
      vertex 3.87433 -0.994759 1.5
      vertex 2.08344 -0.263199 1.5
    endloop
  endfacet
  facet normal 0 0 1
    outer loop
      vertex 1.69894 1.23435 1.5
      vertex 3.23607 2.35114 1.5
      vertex 2.91587 2.73819 1.5
    endloop
  endfacet
  facet normal 0 0 1
    outer loop
      vertex 3.87433 -0.994759 1.5
      vertex 2.03402 -0.522248 1.5
      vertex 3.71911 -1.4725 1.5
    endloop
  endfacet
  facet normal 0 0 1
    outer loop
      vertex 1.53083 1.43755 1.5
      vertex 2.91587 2.73819 1.5
      vertex 2.5497 3.08205 1.5
    endloop
  endfacet
  facet normal -0 0 1
    outer loop
      vertex 1.95253 -0.773061 1.5
      vertex 3.71911 -1.4725 1.5
      vertex 2.03402 -0.522248 1.5
    endloop
  endfacet
  facet normal 0 0 1
    outer loop
      vertex 1.33859 1.61808 1.5
      vertex 2.5497 3.08205 1.5
      vertex 2.14331 3.37731 1.5
    endloop
  endfacet
  facet normal 0 0 1
    outer loop
      vertex 3.71911 -1.4725 1.5
      vertex 1.95253 -0.773061 1.5
      vertex 3.50523 -1.92701 1.5
    endloop
  endfacet
  facet normal -0 0 1
    outer loop
      vertex 1.84024 -1.01168 1.5
      vertex 3.50523 -1.92701 1.5
      vertex 1.95253 -0.773061 1.5
    endloop
  endfacet
  facet normal 0 0 1
    outer loop
      vertex 3.96846 0.501332 1.5
      vertex 2.08344 0.263199 1.5
      vertex 2.1 0 1.5
    endloop
  endfacet
  facet normal 0 0 1
    outer loop
      vertex 3.87433 0.994759 1.5
      vertex 2.03402 0.522248 1.5
      vertex 2.08344 0.263199 1.5
    endloop
  endfacet
  facet normal 0 0 1
    outer loop
      vertex 3.71911 1.4725 1.5
      vertex 1.95253 0.773061 1.5
      vertex 2.03402 0.522248 1.5
    endloop
  endfacet
  facet normal 0 0 1
    outer loop
      vertex 3.50523 1.92701 1.5
      vertex 1.84024 1.01168 1.5
      vertex 1.95253 0.773061 1.5
    endloop
  endfacet
  facet normal 0 0 1
    outer loop
      vertex 1.12524 1.77309 1.5
      vertex 2.14331 3.37731 1.5
      vertex 1.70312 3.61931 1.5
    endloop
  endfacet
  facet normal 0 0 1
    outer loop
      vertex 3.23607 2.35114 1.5
      vertex 1.69894 1.23435 1.5
      vertex 1.84024 1.01168 1.5
    endloop
  endfacet
  facet normal 0 0 1
    outer loop
      vertex 2.91587 2.73819 1.5
      vertex 1.53083 1.43755 1.5
      vertex 1.69894 1.23435 1.5
    endloop
  endfacet
  facet normal 0 0 1
    outer loop
      vertex 2.5497 3.08205 1.5
      vertex 1.33859 1.61808 1.5
      vertex 1.53083 1.43755 1.5
    endloop
  endfacet
  facet normal 0 0 1
    outer loop
      vertex 0.894136 1.90014 1.5
      vertex 1.70312 3.61931 1.5
      vertex 1.23607 3.80423 1.5
    endloop
  endfacet
  facet normal 0 0 1
    outer loop
      vertex 2.14331 3.37731 1.5
      vertex 1.12524 1.77309 1.5
      vertex 1.33859 1.61808 1.5
    endloop
  endfacet
  facet normal 0 0 1
    outer loop
      vertex 1.70312 3.61931 1.5
      vertex 0.894136 1.90014 1.5
      vertex 1.12524 1.77309 1.5
    endloop
  endfacet
  facet normal 0 0 1
    outer loop
      vertex 0.648935 1.99722 1.5
      vertex 1.23607 3.80423 1.5
      vertex 0.749525 3.92915 1.5
    endloop
  endfacet
  facet normal 0 0 1
    outer loop
      vertex 1.23607 3.80423 1.5
      vertex 0.648935 1.99722 1.5
      vertex 0.894136 1.90014 1.5
    endloop
  endfacet
  facet normal 0 0 1
    outer loop
      vertex 0.749525 3.92915 1.5
      vertex 0.3935 2.0628 1.5
      vertex 0.648935 1.99722 1.5
    endloop
  endfacet
  facet normal 0 0 1
    outer loop
      vertex 0.251162 3.99211 1.5
      vertex 0.3935 2.0628 1.5
      vertex 0.749525 3.92915 1.5
    endloop
  endfacet
  facet normal 0 0 1
    outer loop
      vertex 0.251162 3.99211 1.5
      vertex 0.13186 2.09586 1.5
      vertex 0.3935 2.0628 1.5
    endloop
  endfacet
  facet normal 0 0 1
    outer loop
      vertex 0.251162 3.99211 1.5
      vertex -0.13186 2.09586 1.5
      vertex 0.13186 2.09586 1.5
    endloop
  endfacet
  facet normal -0 0 1
    outer loop
      vertex -0.251162 3.99211 1.5
      vertex -0.13186 2.09586 1.5
      vertex 0.251162 3.99211 1.5
    endloop
  endfacet
  facet normal 0 0 1
    outer loop
      vertex -0.251162 3.99211 1.5
      vertex -0.3935 2.0628 1.5
      vertex -0.13186 2.09586 1.5
    endloop
  endfacet
  facet normal -0 0 1
    outer loop
      vertex -0.749525 3.92915 1.5
      vertex -0.3935 2.0628 1.5
      vertex -0.251162 3.99211 1.5
    endloop
  endfacet
  facet normal 0 0 1
    outer loop
      vertex -0.3935 2.0628 1.5
      vertex -0.749525 3.92915 1.5
      vertex -0.648935 1.99722 1.5
    endloop
  endfacet
  facet normal -0 0 1
    outer loop
      vertex -1.23607 3.80423 1.5
      vertex -0.648935 1.99722 1.5
      vertex -0.749525 3.92915 1.5
    endloop
  endfacet
  facet normal 0 0 1
    outer loop
      vertex -0.648935 1.99722 1.5
      vertex -1.23607 3.80423 1.5
      vertex -0.894136 1.90014 1.5
    endloop
  endfacet
  facet normal -0 0 1
    outer loop
      vertex -1.70312 3.61931 1.5
      vertex -0.894136 1.90014 1.5
      vertex -1.23607 3.80423 1.5
    endloop
  endfacet
  facet normal 0 0 1
    outer loop
      vertex -0.894136 1.90014 1.5
      vertex -1.70312 3.61931 1.5
      vertex -1.12524 1.77309 1.5
    endloop
  endfacet
  facet normal -0 0 1
    outer loop
      vertex -2.14331 3.37731 1.5
      vertex -1.12524 1.77309 1.5
      vertex -1.70312 3.61931 1.5
    endloop
  endfacet
  facet normal 0 0 1
    outer loop
      vertex -1.12524 1.77309 1.5
      vertex -2.14331 3.37731 1.5
      vertex -1.33859 1.61808 1.5
    endloop
  endfacet
  facet normal -0 0 1
    outer loop
      vertex -2.5497 3.08205 1.5
      vertex -1.33859 1.61808 1.5
      vertex -2.14331 3.37731 1.5
    endloop
  endfacet
  facet normal 0 0 1
    outer loop
      vertex -1.33859 1.61808 1.5
      vertex -2.5497 3.08205 1.5
      vertex -1.53083 1.43755 1.5
    endloop
  endfacet
  facet normal -0 0 1
    outer loop
      vertex -2.91587 2.73819 1.5
      vertex -1.53083 1.43755 1.5
      vertex -2.5497 3.08205 1.5
    endloop
  endfacet
  facet normal 0 0 1
    outer loop
      vertex -1.53083 1.43755 1.5
      vertex -2.91587 2.73819 1.5
      vertex -1.69894 1.23435 1.5
    endloop
  endfacet
  facet normal -0 0 1
    outer loop
      vertex -3.23607 2.35114 1.5
      vertex -1.69894 1.23435 1.5
      vertex -2.91587 2.73819 1.5
    endloop
  endfacet
  facet normal -0 0 1
    outer loop
      vertex -3.50523 1.92701 1.5
      vertex -1.84024 1.01168 1.5
      vertex -3.23607 2.35114 1.5
    endloop
  endfacet
  facet normal 0 0 1
    outer loop
      vertex -1.69894 1.23435 1.5
      vertex -3.23607 2.35114 1.5
      vertex -1.84024 1.01168 1.5
    endloop
  endfacet
  facet normal 0 0 1
    outer loop
      vertex 3.50523 -1.92701 1.5
      vertex 1.84024 -1.01168 1.5
      vertex 3.23607 -2.35114 1.5
    endloop
  endfacet
  facet normal -0 0 1
    outer loop
      vertex 1.69894 -1.23435 1.5
      vertex 3.23607 -2.35114 1.5
      vertex 1.84024 -1.01168 1.5
    endloop
  endfacet
  facet normal 0 0 1
    outer loop
      vertex 3.23607 -2.35114 1.5
      vertex 1.69894 -1.23435 1.5
      vertex 2.91587 -2.73819 1.5
    endloop
  endfacet
  facet normal -0 0 1
    outer loop
      vertex 1.53083 -1.43755 1.5
      vertex 2.91587 -2.73819 1.5
      vertex 1.69894 -1.23435 1.5
    endloop
  endfacet
  facet normal 0 0 1
    outer loop
      vertex 2.91587 -2.73819 1.5
      vertex 1.53083 -1.43755 1.5
      vertex 2.5497 -3.08205 1.5
    endloop
  endfacet
  facet normal -0 0 1
    outer loop
      vertex 1.33859 -1.61808 1.5
      vertex 2.5497 -3.08205 1.5
      vertex 1.53083 -1.43755 1.5
    endloop
  endfacet
  facet normal 0 0 1
    outer loop
      vertex 2.5497 -3.08205 1.5
      vertex 1.33859 -1.61808 1.5
      vertex 2.14331 -3.37731 1.5
    endloop
  endfacet
  facet normal -0 0 1
    outer loop
      vertex 1.12524 -1.77309 1.5
      vertex 2.14331 -3.37731 1.5
      vertex 1.33859 -1.61808 1.5
    endloop
  endfacet
  facet normal 0 0 1
    outer loop
      vertex 2.14331 -3.37731 1.5
      vertex 1.12524 -1.77309 1.5
      vertex 1.70312 -3.61931 1.5
    endloop
  endfacet
  facet normal -0 0 1
    outer loop
      vertex 0.894136 -1.90014 1.5
      vertex 1.70312 -3.61931 1.5
      vertex 1.12524 -1.77309 1.5
    endloop
  endfacet
  facet normal 0 0 1
    outer loop
      vertex 1.70312 -3.61931 1.5
      vertex 0.894136 -1.90014 1.5
      vertex 1.23607 -3.80423 1.5
    endloop
  endfacet
  facet normal -0 0 1
    outer loop
      vertex 0.648935 -1.99722 1.5
      vertex 1.23607 -3.80423 1.5
      vertex 0.894136 -1.90014 1.5
    endloop
  endfacet
  facet normal 0 0 1
    outer loop
      vertex 1.23607 -3.80423 1.5
      vertex 0.648935 -1.99722 1.5
      vertex 0.749525 -3.92915 1.5
    endloop
  endfacet
  facet normal -0 0 1
    outer loop
      vertex 0.3935 -2.0628 1.5
      vertex 0.749525 -3.92915 1.5
      vertex 0.648935 -1.99722 1.5
    endloop
  endfacet
  facet normal 0 0 1
    outer loop
      vertex 0.3935 -2.0628 1.5
      vertex 0.251162 -3.99211 1.5
      vertex 0.749525 -3.92915 1.5
    endloop
  endfacet
  facet normal -0 0 1
    outer loop
      vertex 0.13186 -2.09586 1.5
      vertex 0.251162 -3.99211 1.5
      vertex 0.3935 -2.0628 1.5
    endloop
  endfacet
  facet normal -0 0 1
    outer loop
      vertex -0.13186 -2.09586 1.5
      vertex 0.251162 -3.99211 1.5
      vertex 0.13186 -2.09586 1.5
    endloop
  endfacet
  facet normal 0 0 1
    outer loop
      vertex -0.13186 -2.09586 1.5
      vertex -0.251162 -3.99211 1.5
      vertex 0.251162 -3.99211 1.5
    endloop
  endfacet
  facet normal 0 0 1
    outer loop
      vertex -0.3935 -2.0628 1.5
      vertex -0.251162 -3.99211 1.5
      vertex -0.13186 -2.09586 1.5
    endloop
  endfacet
  facet normal 0 0 1
    outer loop
      vertex -0.749525 -3.92915 1.5
      vertex -0.3935 -2.0628 1.5
      vertex -0.648935 -1.99722 1.5
    endloop
  endfacet
  facet normal 0 0 1
    outer loop
      vertex -0.3935 -2.0628 1.5
      vertex -0.749525 -3.92915 1.5
      vertex -0.251162 -3.99211 1.5
    endloop
  endfacet
  facet normal 0 0 1
    outer loop
      vertex -1.23607 -3.80423 1.5
      vertex -0.648935 -1.99722 1.5
      vertex -0.894136 -1.90014 1.5
    endloop
  endfacet
  facet normal 0 0 1
    outer loop
      vertex -1.70312 -3.61931 1.5
      vertex -0.894136 -1.90014 1.5
      vertex -1.12524 -1.77309 1.5
    endloop
  endfacet
  facet normal 0 0 1
    outer loop
      vertex -0.648935 -1.99722 1.5
      vertex -1.23607 -3.80423 1.5
      vertex -0.749525 -3.92915 1.5
    endloop
  endfacet
  facet normal 0 0 1
    outer loop
      vertex -2.14331 -3.37731 1.5
      vertex -1.12524 -1.77309 1.5
      vertex -1.33859 -1.61808 1.5
    endloop
  endfacet
  facet normal 0 0 1
    outer loop
      vertex -2.5497 -3.08205 1.5
      vertex -1.33859 -1.61808 1.5
      vertex -1.53083 -1.43755 1.5
    endloop
  endfacet
  facet normal 0 0 1
    outer loop
      vertex -2.91587 -2.73819 1.5
      vertex -1.53083 -1.43755 1.5
      vertex -1.69894 -1.23435 1.5
    endloop
  endfacet
  facet normal 0 0 1
    outer loop
      vertex -0.894136 -1.90014 1.5
      vertex -1.70312 -3.61931 1.5
      vertex -1.23607 -3.80423 1.5
    endloop
  endfacet
  facet normal 0 0 1
    outer loop
      vertex -3.23607 -2.35114 1.5
      vertex -1.69894 -1.23435 1.5
      vertex -1.84024 -1.01168 1.5
    endloop
  endfacet
  facet normal 0 0 1
    outer loop
      vertex -3.50523 -1.92701 1.5
      vertex -1.84024 -1.01168 1.5
      vertex -1.95253 -0.773061 1.5
    endloop
  endfacet
  facet normal 0 0 1
    outer loop
      vertex -3.71911 -1.4725 1.5
      vertex -1.95253 -0.773061 1.5
      vertex -2.03402 -0.522248 1.5
    endloop
  endfacet
  facet normal 0 0 1
    outer loop
      vertex -3.87433 -0.994759 1.5
      vertex -2.03402 -0.522248 1.5
      vertex -2.08344 -0.263199 1.5
    endloop
  endfacet
  facet normal 0 0 1
    outer loop
      vertex -1.12524 -1.77309 1.5
      vertex -2.14331 -3.37731 1.5
      vertex -1.70312 -3.61931 1.5
    endloop
  endfacet
  facet normal 0 0 1
    outer loop
      vertex -3.96846 -0.501332 1.5
      vertex -2.08344 -0.263199 1.5
      vertex -2.1 0 1.5
    endloop
  endfacet
  facet normal 0 0 1
    outer loop
      vertex -1.84024 1.01168 1.5
      vertex -3.50523 1.92701 1.5
      vertex -1.95253 0.773061 1.5
    endloop
  endfacet
  facet normal -0 0 1
    outer loop
      vertex -3.71911 1.4725 1.5
      vertex -1.95253 0.773061 1.5
      vertex -3.50523 1.92701 1.5
    endloop
  endfacet
  facet normal 0 0 1
    outer loop
      vertex -1.33859 -1.61808 1.5
      vertex -2.5497 -3.08205 1.5
      vertex -2.14331 -3.37731 1.5
    endloop
  endfacet
  facet normal 0 0 1
    outer loop
      vertex -1.95253 0.773061 1.5
      vertex -3.71911 1.4725 1.5
      vertex -2.03402 0.522248 1.5
    endloop
  endfacet
  facet normal 0 0 1
    outer loop
      vertex -1.53083 -1.43755 1.5
      vertex -2.91587 -2.73819 1.5
      vertex -2.5497 -3.08205 1.5
    endloop
  endfacet
  facet normal -0 0 1
    outer loop
      vertex -3.87433 0.994759 1.5
      vertex -2.03402 0.522248 1.5
      vertex -3.71911 1.4725 1.5
    endloop
  endfacet
  facet normal 0 0 1
    outer loop
      vertex -1.69894 -1.23435 1.5
      vertex -3.23607 -2.35114 1.5
      vertex -2.91587 -2.73819 1.5
    endloop
  endfacet
  facet normal 0 0 1
    outer loop
      vertex -2.03402 0.522248 1.5
      vertex -3.87433 0.994759 1.5
      vertex -2.08344 0.263199 1.5
    endloop
  endfacet
  facet normal 0 0 1
    outer loop
      vertex -1.84024 -1.01168 1.5
      vertex -3.50523 -1.92701 1.5
      vertex -3.23607 -2.35114 1.5
    endloop
  endfacet
  facet normal -0 0 1
    outer loop
      vertex -3.96846 0.501332 1.5
      vertex -2.08344 0.263199 1.5
      vertex -3.87433 0.994759 1.5
    endloop
  endfacet
  facet normal 0 0 1
    outer loop
      vertex -1.95253 -0.773061 1.5
      vertex -3.71911 -1.4725 1.5
      vertex -3.50523 -1.92701 1.5
    endloop
  endfacet
  facet normal 0 0 1
    outer loop
      vertex -2.08344 0.263199 1.5
      vertex -3.96846 0.501332 1.5
      vertex -2.1 0 1.5
    endloop
  endfacet
  facet normal 0 0 1
    outer loop
      vertex -2.03402 -0.522248 1.5
      vertex -3.87433 -0.994759 1.5
      vertex -3.71911 -1.4725 1.5
    endloop
  endfacet
  facet normal 0 0 1
    outer loop
      vertex -4 0 1.5
      vertex -2.1 0 1.5
      vertex -3.96846 0.501332 1.5
    endloop
  endfacet
  facet normal 0 0 1
    outer loop
      vertex -2.08344 -0.263199 1.5
      vertex -3.96846 -0.501332 1.5
      vertex -3.87433 -0.994759 1.5
    endloop
  endfacet
  facet normal 0 0 1
    outer loop
      vertex -2.1 0 1.5
      vertex -4 0 1.5
      vertex -3.96846 -0.501332 1.5
    endloop
  endfacet
  facet normal -0.587785 0.809017 0
    outer loop
      vertex -2.14331 3.37731 -1.5
      vertex -2.5497 3.08205 1.5
      vertex -2.14331 3.37731 1.5
    endloop
  endfacet
  facet normal -0.587785 0.809017 0
    outer loop
      vertex -2.5497 3.08205 1.5
      vertex -2.14331 3.37731 -1.5
      vertex -2.5497 3.08205 -1.5
    endloop
  endfacet
  facet normal -0.125333 0.992115 0
    outer loop
      vertex -0.251162 3.99211 -1.5
      vertex -0.749525 3.92915 1.5
      vertex -0.251162 3.99211 1.5
    endloop
  endfacet
  facet normal -0.125333 0.992115 0
    outer loop
      vertex -0.749525 3.92915 1.5
      vertex -0.251162 3.99211 -1.5
      vertex -0.749525 3.92915 -1.5
    endloop
  endfacet
  facet normal 0.770513 -0.637424 0
    outer loop
      vertex 2.91587 -2.73819 1.5
      vertex 3.23607 -2.35114 -1.5
      vertex 3.23607 -2.35114 1.5
    endloop
  endfacet
  facet normal 0.770513 -0.637424 0
    outer loop
      vertex 3.23607 -2.35114 -1.5
      vertex 2.91587 -2.73819 1.5
      vertex 2.91587 -2.73819 -1.5
    endloop
  endfacet
  facet normal 0.951057 -0.309017 0
    outer loop
      vertex 3.71911 -1.4725 1.5
      vertex 3.87433 -0.994759 -1.5
      vertex 3.87433 -0.994759 1.5
    endloop
  endfacet
  facet normal 0.951057 -0.309017 0
    outer loop
      vertex 3.87433 -0.994759 -1.5
      vertex 3.71911 -1.4725 1.5
      vertex 3.71911 -1.4725 -1.5
    endloop
  endfacet
  facet normal 0.982287 -0.187381 0
    outer loop
      vertex 3.87433 -0.994759 1.5
      vertex 3.96846 -0.501332 -1.5
      vertex 3.96846 -0.501332 1.5
    endloop
  endfacet
  facet normal 0.982287 -0.187381 0
    outer loop
      vertex 3.96846 -0.501332 -1.5
      vertex 3.87433 -0.994759 1.5
      vertex 3.87433 -0.994759 -1.5
    endloop
  endfacet
  facet normal -0.684546 -0.72897 0
    outer loop
      vertex -2.91587 -2.73819 -1.5
      vertex -2.5497 -3.08205 1.5
      vertex -2.91587 -2.73819 1.5
    endloop
  endfacet
  facet normal -0.684546 -0.72897 -0
    outer loop
      vertex -2.5497 -3.08205 1.5
      vertex -2.91587 -2.73819 -1.5
      vertex -2.5497 -3.08205 -1.5
    endloop
  endfacet
  facet normal -0.770513 -0.637424 0
    outer loop
      vertex -2.91587 -2.73819 -1.5
      vertex -3.23607 -2.35114 1.5
      vertex -3.23607 -2.35114 -1.5
    endloop
  endfacet
  facet normal -0.770513 -0.637424 0
    outer loop
      vertex -3.23607 -2.35114 1.5
      vertex -2.91587 -2.73819 -1.5
      vertex -2.91587 -2.73819 1.5
    endloop
  endfacet
  facet normal 0 0 -1
    outer loop
      vertex 2.1 0 -1.5
      vertex 4 0 -1.5
      vertex 3.96846 -0.501332 -1.5
    endloop
  endfacet
  facet normal 0 0 -1
    outer loop
      vertex 2.08344 -0.263199 -1.5
      vertex 3.96846 -0.501332 -1.5
      vertex 3.87433 -0.994759 -1.5
    endloop
  endfacet
  facet normal 0 0 -1
    outer loop
      vertex 4 0 -1.5
      vertex 2.1 0 -1.5
      vertex 3.96846 0.501332 -1.5
    endloop
  endfacet
  facet normal 0 0 -1
    outer loop
      vertex 2.03402 -0.522248 -1.5
      vertex 3.87433 -0.994759 -1.5
      vertex 3.71911 -1.4725 -1.5
    endloop
  endfacet
  facet normal 0 0 -1
    outer loop
      vertex 2.08344 0.263199 -1.5
      vertex 3.96846 0.501332 -1.5
      vertex 2.1 0 -1.5
    endloop
  endfacet
  facet normal 0 0 -1
    outer loop
      vertex 1.95253 -0.773061 -1.5
      vertex 3.71911 -1.4725 -1.5
      vertex 3.50523 -1.92701 -1.5
    endloop
  endfacet
  facet normal -0 0 -1
    outer loop
      vertex 3.96846 0.501332 -1.5
      vertex 2.08344 0.263199 -1.5
      vertex 3.87433 0.994759 -1.5
    endloop
  endfacet
  facet normal 0 0 -1
    outer loop
      vertex 1.84024 -1.01168 -1.5
      vertex 3.50523 -1.92701 -1.5
      vertex 3.23607 -2.35114 -1.5
    endloop
  endfacet
  facet normal 0 0 -1
    outer loop
      vertex 2.03402 0.522248 -1.5
      vertex 3.87433 0.994759 -1.5
      vertex 2.08344 0.263199 -1.5
    endloop
  endfacet
  facet normal 0 0 -1
    outer loop
      vertex 1.69894 -1.23435 -1.5
      vertex 3.23607 -2.35114 -1.5
      vertex 2.91587 -2.73819 -1.5
    endloop
  endfacet
  facet normal -0 0 -1
    outer loop
      vertex 3.87433 0.994759 -1.5
      vertex 2.03402 0.522248 -1.5
      vertex 3.71911 1.4725 -1.5
    endloop
  endfacet
  facet normal 0 0 -1
    outer loop
      vertex 1.53083 -1.43755 -1.5
      vertex 2.91587 -2.73819 -1.5
      vertex 2.5497 -3.08205 -1.5
    endloop
  endfacet
  facet normal 0 0 -1
    outer loop
      vertex 1.95253 0.773061 -1.5
      vertex 3.71911 1.4725 -1.5
      vertex 2.03402 0.522248 -1.5
    endloop
  endfacet
  facet normal 0 0 -1
    outer loop
      vertex 1.33859 -1.61808 -1.5
      vertex 2.5497 -3.08205 -1.5
      vertex 2.14331 -3.37731 -1.5
    endloop
  endfacet
  facet normal -0 0 -1
    outer loop
      vertex 3.71911 1.4725 -1.5
      vertex 1.95253 0.773061 -1.5
      vertex 3.50523 1.92701 -1.5
    endloop
  endfacet
  facet normal 0 0 -1
    outer loop
      vertex 1.84024 1.01168 -1.5
      vertex 3.50523 1.92701 -1.5
      vertex 1.95253 0.773061 -1.5
    endloop
  endfacet
  facet normal 0 0 -1
    outer loop
      vertex 3.96846 -0.501332 -1.5
      vertex 2.08344 -0.263199 -1.5
      vertex 2.1 0 -1.5
    endloop
  endfacet
  facet normal 0 0 -1
    outer loop
      vertex 3.87433 -0.994759 -1.5
      vertex 2.03402 -0.522248 -1.5
      vertex 2.08344 -0.263199 -1.5
    endloop
  endfacet
  facet normal 0 0 -1
    outer loop
      vertex 3.71911 -1.4725 -1.5
      vertex 1.95253 -0.773061 -1.5
      vertex 2.03402 -0.522248 -1.5
    endloop
  endfacet
  facet normal 0 0 -1
    outer loop
      vertex 3.50523 -1.92701 -1.5
      vertex 1.84024 -1.01168 -1.5
      vertex 1.95253 -0.773061 -1.5
    endloop
  endfacet
  facet normal 0 0 -1
    outer loop
      vertex 1.12524 -1.77309 -1.5
      vertex 2.14331 -3.37731 -1.5
      vertex 1.70312 -3.61931 -1.5
    endloop
  endfacet
  facet normal 0 0 -1
    outer loop
      vertex 3.23607 -2.35114 -1.5
      vertex 1.69894 -1.23435 -1.5
      vertex 1.84024 -1.01168 -1.5
    endloop
  endfacet
  facet normal 0 0 -1
    outer loop
      vertex 2.91587 -2.73819 -1.5
      vertex 1.53083 -1.43755 -1.5
      vertex 1.69894 -1.23435 -1.5
    endloop
  endfacet
  facet normal 0 0 -1
    outer loop
      vertex 2.5497 -3.08205 -1.5
      vertex 1.33859 -1.61808 -1.5
      vertex 1.53083 -1.43755 -1.5
    endloop
  endfacet
  facet normal 0 0 -1
    outer loop
      vertex 0.894136 -1.90014 -1.5
      vertex 1.70312 -3.61931 -1.5
      vertex 1.23607 -3.80423 -1.5
    endloop
  endfacet
  facet normal 0 0 -1
    outer loop
      vertex 2.14331 -3.37731 -1.5
      vertex 1.12524 -1.77309 -1.5
      vertex 1.33859 -1.61808 -1.5
    endloop
  endfacet
  facet normal 0 0 -1
    outer loop
      vertex 1.70312 -3.61931 -1.5
      vertex 0.894136 -1.90014 -1.5
      vertex 1.12524 -1.77309 -1.5
    endloop
  endfacet
  facet normal 0 0 -1
    outer loop
      vertex 0.648935 -1.99722 -1.5
      vertex 1.23607 -3.80423 -1.5
      vertex 0.749525 -3.92915 -1.5
    endloop
  endfacet
  facet normal 0 0 -1
    outer loop
      vertex 1.23607 -3.80423 -1.5
      vertex 0.648935 -1.99722 -1.5
      vertex 0.894136 -1.90014 -1.5
    endloop
  endfacet
  facet normal 0 0 -1
    outer loop
      vertex 0.749525 -3.92915 -1.5
      vertex 0.3935 -2.0628 -1.5
      vertex 0.648935 -1.99722 -1.5
    endloop
  endfacet
  facet normal 0 0 -1
    outer loop
      vertex 0.251162 -3.99211 -1.5
      vertex 0.3935 -2.0628 -1.5
      vertex 0.749525 -3.92915 -1.5
    endloop
  endfacet
  facet normal 0 0 -1
    outer loop
      vertex 0.251162 -3.99211 -1.5
      vertex 0.13186 -2.09586 -1.5
      vertex 0.3935 -2.0628 -1.5
    endloop
  endfacet
  facet normal 0 0 -1
    outer loop
      vertex 0.251162 -3.99211 -1.5
      vertex -0.13186 -2.09586 -1.5
      vertex 0.13186 -2.09586 -1.5
    endloop
  endfacet
  facet normal 0 0 -1
    outer loop
      vertex -0.251162 -3.99211 -1.5
      vertex -0.13186 -2.09586 -1.5
      vertex 0.251162 -3.99211 -1.5
    endloop
  endfacet
  facet normal 0 0 -1
    outer loop
      vertex -0.251162 -3.99211 -1.5
      vertex -0.3935 -2.0628 -1.5
      vertex -0.13186 -2.09586 -1.5
    endloop
  endfacet
  facet normal 0 0 -1
    outer loop
      vertex -0.749525 -3.92915 -1.5
      vertex -0.3935 -2.0628 -1.5
      vertex -0.251162 -3.99211 -1.5
    endloop
  endfacet
  facet normal -0 0 -1
    outer loop
      vertex -0.3935 -2.0628 -1.5
      vertex -0.749525 -3.92915 -1.5
      vertex -0.648935 -1.99722 -1.5
    endloop
  endfacet
  facet normal 0 0 -1
    outer loop
      vertex -1.23607 -3.80423 -1.5
      vertex -0.648935 -1.99722 -1.5
      vertex -0.749525 -3.92915 -1.5
    endloop
  endfacet
  facet normal -0 0 -1
    outer loop
      vertex -0.648935 -1.99722 -1.5
      vertex -1.23607 -3.80423 -1.5
      vertex -0.894136 -1.90014 -1.5
    endloop
  endfacet
  facet normal 0 0 -1
    outer loop
      vertex -1.70312 -3.61931 -1.5
      vertex -0.894136 -1.90014 -1.5
      vertex -1.23607 -3.80423 -1.5
    endloop
  endfacet
  facet normal -0 0 -1
    outer loop
      vertex -0.894136 -1.90014 -1.5
      vertex -1.70312 -3.61931 -1.5
      vertex -1.12524 -1.77309 -1.5
    endloop
  endfacet
  facet normal 0 0 -1
    outer loop
      vertex -2.14331 -3.37731 -1.5
      vertex -1.12524 -1.77309 -1.5
      vertex -1.70312 -3.61931 -1.5
    endloop
  endfacet
  facet normal -0 0 -1
    outer loop
      vertex -1.12524 -1.77309 -1.5
      vertex -2.14331 -3.37731 -1.5
      vertex -1.33859 -1.61808 -1.5
    endloop
  endfacet
  facet normal 0 0 -1
    outer loop
      vertex -2.5497 -3.08205 -1.5
      vertex -1.33859 -1.61808 -1.5
      vertex -2.14331 -3.37731 -1.5
    endloop
  endfacet
  facet normal -0 0 -1
    outer loop
      vertex -1.33859 -1.61808 -1.5
      vertex -2.5497 -3.08205 -1.5
      vertex -1.53083 -1.43755 -1.5
    endloop
  endfacet
  facet normal 0 0 -1
    outer loop
      vertex -2.91587 -2.73819 -1.5
      vertex -1.53083 -1.43755 -1.5
      vertex -2.5497 -3.08205 -1.5
    endloop
  endfacet
  facet normal -0 0 -1
    outer loop
      vertex -1.53083 -1.43755 -1.5
      vertex -2.91587 -2.73819 -1.5
      vertex -1.69894 -1.23435 -1.5
    endloop
  endfacet
  facet normal 0 0 -1
    outer loop
      vertex -3.23607 -2.35114 -1.5
      vertex -1.69894 -1.23435 -1.5
      vertex -2.91587 -2.73819 -1.5
    endloop
  endfacet
  facet normal 0 0 -1
    outer loop
      vertex -3.50523 -1.92701 -1.5
      vertex -1.84024 -1.01168 -1.5
      vertex -3.23607 -2.35114 -1.5
    endloop
  endfacet
  facet normal -0 0 -1
    outer loop
      vertex -1.69894 -1.23435 -1.5
      vertex -3.23607 -2.35114 -1.5
      vertex -1.84024 -1.01168 -1.5
    endloop
  endfacet
  facet normal -0 0 -1
    outer loop
      vertex 3.50523 1.92701 -1.5
      vertex 1.84024 1.01168 -1.5
      vertex 3.23607 2.35114 -1.5
    endloop
  endfacet
  facet normal 0 0 -1
    outer loop
      vertex 1.69894 1.23435 -1.5
      vertex 3.23607 2.35114 -1.5
      vertex 1.84024 1.01168 -1.5
    endloop
  endfacet
  facet normal -0 0 -1
    outer loop
      vertex 3.23607 2.35114 -1.5
      vertex 1.69894 1.23435 -1.5
      vertex 2.91587 2.73819 -1.5
    endloop
  endfacet
  facet normal 0 0 -1
    outer loop
      vertex 1.53083 1.43755 -1.5
      vertex 2.91587 2.73819 -1.5
      vertex 1.69894 1.23435 -1.5
    endloop
  endfacet
  facet normal -0 0 -1
    outer loop
      vertex 2.91587 2.73819 -1.5
      vertex 1.53083 1.43755 -1.5
      vertex 2.5497 3.08205 -1.5
    endloop
  endfacet
  facet normal 0 0 -1
    outer loop
      vertex 1.33859 1.61808 -1.5
      vertex 2.5497 3.08205 -1.5
      vertex 1.53083 1.43755 -1.5
    endloop
  endfacet
  facet normal -0 0 -1
    outer loop
      vertex 2.5497 3.08205 -1.5
      vertex 1.33859 1.61808 -1.5
      vertex 2.14331 3.37731 -1.5
    endloop
  endfacet
  facet normal 0 0 -1
    outer loop
      vertex 1.12524 1.77309 -1.5
      vertex 2.14331 3.37731 -1.5
      vertex 1.33859 1.61808 -1.5
    endloop
  endfacet
  facet normal -0 0 -1
    outer loop
      vertex 2.14331 3.37731 -1.5
      vertex 1.12524 1.77309 -1.5
      vertex 1.70312 3.61931 -1.5
    endloop
  endfacet
  facet normal 0 0 -1
    outer loop
      vertex 0.894136 1.90014 -1.5
      vertex 1.70312 3.61931 -1.5
      vertex 1.12524 1.77309 -1.5
    endloop
  endfacet
  facet normal -0 0 -1
    outer loop
      vertex 1.70312 3.61931 -1.5
      vertex 0.894136 1.90014 -1.5
      vertex 1.23607 3.80423 -1.5
    endloop
  endfacet
  facet normal 0 0 -1
    outer loop
      vertex 0.648935 1.99722 -1.5
      vertex 1.23607 3.80423 -1.5
      vertex 0.894136 1.90014 -1.5
    endloop
  endfacet
  facet normal -0 0 -1
    outer loop
      vertex 1.23607 3.80423 -1.5
      vertex 0.648935 1.99722 -1.5
      vertex 0.749525 3.92915 -1.5
    endloop
  endfacet
  facet normal 0 0 -1
    outer loop
      vertex 0.3935 2.0628 -1.5
      vertex 0.749525 3.92915 -1.5
      vertex 0.648935 1.99722 -1.5
    endloop
  endfacet
  facet normal 0 0 -1
    outer loop
      vertex 0.3935 2.0628 -1.5
      vertex 0.251162 3.99211 -1.5
      vertex 0.749525 3.92915 -1.5
    endloop
  endfacet
  facet normal 0 0 -1
    outer loop
      vertex 0.13186 2.09586 -1.5
      vertex 0.251162 3.99211 -1.5
      vertex 0.3935 2.0628 -1.5
    endloop
  endfacet
  facet normal 0 0 -1
    outer loop
      vertex -0.13186 2.09586 -1.5
      vertex 0.251162 3.99211 -1.5
      vertex 0.13186 2.09586 -1.5
    endloop
  endfacet
  facet normal 0 0 -1
    outer loop
      vertex -0.13186 2.09586 -1.5
      vertex -0.251162 3.99211 -1.5
      vertex 0.251162 3.99211 -1.5
    endloop
  endfacet
  facet normal 0 0 -1
    outer loop
      vertex -0.3935 2.0628 -1.5
      vertex -0.251162 3.99211 -1.5
      vertex -0.13186 2.09586 -1.5
    endloop
  endfacet
  facet normal 0 0 -1
    outer loop
      vertex -0.749525 3.92915 -1.5
      vertex -0.3935 2.0628 -1.5
      vertex -0.648935 1.99722 -1.5
    endloop
  endfacet
  facet normal 0 0 -1
    outer loop
      vertex -0.3935 2.0628 -1.5
      vertex -0.749525 3.92915 -1.5
      vertex -0.251162 3.99211 -1.5
    endloop
  endfacet
  facet normal 0 0 -1
    outer loop
      vertex -1.23607 3.80423 -1.5
      vertex -0.648935 1.99722 -1.5
      vertex -0.894136 1.90014 -1.5
    endloop
  endfacet
  facet normal 0 0 -1
    outer loop
      vertex -1.70312 3.61931 -1.5
      vertex -0.894136 1.90014 -1.5
      vertex -1.12524 1.77309 -1.5
    endloop
  endfacet
  facet normal 0 0 -1
    outer loop
      vertex -0.648935 1.99722 -1.5
      vertex -1.23607 3.80423 -1.5
      vertex -0.749525 3.92915 -1.5
    endloop
  endfacet
  facet normal 0 0 -1
    outer loop
      vertex -2.14331 3.37731 -1.5
      vertex -1.12524 1.77309 -1.5
      vertex -1.33859 1.61808 -1.5
    endloop
  endfacet
  facet normal 0 0 -1
    outer loop
      vertex -2.5497 3.08205 -1.5
      vertex -1.33859 1.61808 -1.5
      vertex -1.53083 1.43755 -1.5
    endloop
  endfacet
  facet normal 0 0 -1
    outer loop
      vertex -2.91587 2.73819 -1.5
      vertex -1.53083 1.43755 -1.5
      vertex -1.69894 1.23435 -1.5
    endloop
  endfacet
  facet normal 0 0 -1
    outer loop
      vertex -0.894136 1.90014 -1.5
      vertex -1.70312 3.61931 -1.5
      vertex -1.23607 3.80423 -1.5
    endloop
  endfacet
  facet normal 0 0 -1
    outer loop
      vertex -3.23607 2.35114 -1.5
      vertex -1.69894 1.23435 -1.5
      vertex -1.84024 1.01168 -1.5
    endloop
  endfacet
  facet normal 0 0 -1
    outer loop
      vertex -3.50523 1.92701 -1.5
      vertex -1.84024 1.01168 -1.5
      vertex -1.95253 0.773061 -1.5
    endloop
  endfacet
  facet normal 0 0 -1
    outer loop
      vertex -3.71911 1.4725 -1.5
      vertex -1.95253 0.773061 -1.5
      vertex -2.03402 0.522248 -1.5
    endloop
  endfacet
  facet normal 0 0 -1
    outer loop
      vertex -3.87433 0.994759 -1.5
      vertex -2.03402 0.522248 -1.5
      vertex -2.08344 0.263199 -1.5
    endloop
  endfacet
  facet normal 0 0 -1
    outer loop
      vertex -1.12524 1.77309 -1.5
      vertex -2.14331 3.37731 -1.5
      vertex -1.70312 3.61931 -1.5
    endloop
  endfacet
  facet normal 0 0 -1
    outer loop
      vertex -3.96846 0.501332 -1.5
      vertex -2.08344 0.263199 -1.5
      vertex -2.1 0 -1.5
    endloop
  endfacet
  facet normal -0 0 -1
    outer loop
      vertex -1.84024 -1.01168 -1.5
      vertex -3.50523 -1.92701 -1.5
      vertex -1.95253 -0.773061 -1.5
    endloop
  endfacet
  facet normal 0 0 -1
    outer loop
      vertex -3.71911 -1.4725 -1.5
      vertex -1.95253 -0.773061 -1.5
      vertex -3.50523 -1.92701 -1.5
    endloop
  endfacet
  facet normal 0 0 -1
    outer loop
      vertex -1.33859 1.61808 -1.5
      vertex -2.5497 3.08205 -1.5
      vertex -2.14331 3.37731 -1.5
    endloop
  endfacet
  facet normal -0 0 -1
    outer loop
      vertex -1.95253 -0.773061 -1.5
      vertex -3.71911 -1.4725 -1.5
      vertex -2.03402 -0.522248 -1.5
    endloop
  endfacet
  facet normal 0 0 -1
    outer loop
      vertex -1.53083 1.43755 -1.5
      vertex -2.91587 2.73819 -1.5
      vertex -2.5497 3.08205 -1.5
    endloop
  endfacet
  facet normal 0 0 -1
    outer loop
      vertex -3.87433 -0.994759 -1.5
      vertex -2.03402 -0.522248 -1.5
      vertex -3.71911 -1.4725 -1.5
    endloop
  endfacet
  facet normal 0 0 -1
    outer loop
      vertex -1.69894 1.23435 -1.5
      vertex -3.23607 2.35114 -1.5
      vertex -2.91587 2.73819 -1.5
    endloop
  endfacet
  facet normal -0 0 -1
    outer loop
      vertex -2.03402 -0.522248 -1.5
      vertex -3.87433 -0.994759 -1.5
      vertex -2.08344 -0.263199 -1.5
    endloop
  endfacet
  facet normal 0 0 -1
    outer loop
      vertex -1.84024 1.01168 -1.5
      vertex -3.50523 1.92701 -1.5
      vertex -3.23607 2.35114 -1.5
    endloop
  endfacet
  facet normal 0 0 -1
    outer loop
      vertex -3.96846 -0.501332 -1.5
      vertex -2.08344 -0.263199 -1.5
      vertex -3.87433 -0.994759 -1.5
    endloop
  endfacet
  facet normal 0 0 -1
    outer loop
      vertex -1.95253 0.773061 -1.5
      vertex -3.71911 1.4725 -1.5
      vertex -3.50523 1.92701 -1.5
    endloop
  endfacet
  facet normal -0 0 -1
    outer loop
      vertex -2.08344 -0.263199 -1.5
      vertex -3.96846 -0.501332 -1.5
      vertex -2.1 0 -1.5
    endloop
  endfacet
  facet normal 0 0 -1
    outer loop
      vertex -2.03402 0.522248 -1.5
      vertex -3.87433 0.994759 -1.5
      vertex -3.71911 1.4725 -1.5
    endloop
  endfacet
  facet normal 0 0 -1
    outer loop
      vertex -4 0 -1.5
      vertex -2.1 0 -1.5
      vertex -3.96846 -0.501332 -1.5
    endloop
  endfacet
  facet normal 0 0 -1
    outer loop
      vertex -2.08344 0.263199 -1.5
      vertex -3.96846 0.501332 -1.5
      vertex -3.87433 0.994759 -1.5
    endloop
  endfacet
  facet normal 0 0 -1
    outer loop
      vertex -2.1 0 -1.5
      vertex -4 0 -1.5
      vertex -3.96846 0.501332 -1.5
    endloop
  endfacet
  facet normal 0.844328 -0.535826 0
    outer loop
      vertex 3.23607 -2.35114 1.5
      vertex 3.50523 -1.92701 -1.5
      vertex 3.50523 -1.92701 1.5
    endloop
  endfacet
  facet normal 0.844328 -0.535826 0
    outer loop
      vertex 3.50523 -1.92701 -1.5
      vertex 3.23607 -2.35114 1.5
      vertex 3.23607 -2.35114 -1.5
    endloop
  endfacet
  facet normal 0.998027 -0.0627918 0
    outer loop
      vertex 3.96846 -0.501332 1.5
      vertex 4 0 -1.5
      vertex 4 0 1.5
    endloop
  endfacet
  facet normal 0.998027 -0.0627918 0
    outer loop
      vertex 4 0 -1.5
      vertex 3.96846 -0.501332 1.5
      vertex 3.96846 -0.501332 -1.5
    endloop
  endfacet
  facet normal -0.24869 -0.968583 0
    outer loop
      vertex -1.23607 -3.80423 -1.5
      vertex -0.749525 -3.92915 1.5
      vertex -1.23607 -3.80423 1.5
    endloop
  endfacet
  facet normal -0.24869 -0.968583 -0
    outer loop
      vertex -0.749525 -3.92915 1.5
      vertex -1.23607 -3.80423 -1.5
      vertex -0.749525 -3.92915 -1.5
    endloop
  endfacet
  facet normal -0.951057 -0.309017 0
    outer loop
      vertex -3.71911 -1.4725 -1.5
      vertex -3.87433 -0.994759 1.5
      vertex -3.87433 -0.994759 -1.5
    endloop
  endfacet
  facet normal -0.951057 -0.309017 0
    outer loop
      vertex -3.87433 -0.994759 1.5
      vertex -3.71911 -1.4725 -1.5
      vertex -3.71911 -1.4725 1.5
    endloop
  endfacet
  facet normal -0.998027 -0.0627918 0
    outer loop
      vertex -3.96846 -0.501332 -1.5
      vertex -4 0 1.5
      vertex -4 0 -1.5
    endloop
  endfacet
  facet normal -0.998027 -0.0627918 0
    outer loop
      vertex -4 0 1.5
      vertex -3.96846 -0.501332 -1.5
      vertex -3.96846 -0.501332 1.5
    endloop
  endfacet
  facet normal 0.368126 -0.929776 0
    outer loop
      vertex 1.23607 -3.80423 -1.5
      vertex 1.70312 -3.61931 1.5
      vertex 1.23607 -3.80423 1.5
    endloop
  endfacet
  facet normal 0.368126 -0.929776 0
    outer loop
      vertex 1.70312 -3.61931 1.5
      vertex 1.23607 -3.80423 -1.5
      vertex 1.70312 -3.61931 -1.5
    endloop
  endfacet
  facet normal 0.24869 -0.968583 0
    outer loop
      vertex 0.749525 -3.92915 -1.5
      vertex 1.23607 -3.80423 1.5
      vertex 0.749525 -3.92915 1.5
    endloop
  endfacet
  facet normal 0.24869 -0.968583 0
    outer loop
      vertex 1.23607 -3.80423 1.5
      vertex 0.749525 -3.92915 -1.5
      vertex 1.23607 -3.80423 -1.5
    endloop
  endfacet
  facet normal 0.684546 -0.72897 0
    outer loop
      vertex 2.5497 -3.08205 -1.5
      vertex 2.91587 -2.73819 1.5
      vertex 2.5497 -3.08205 1.5
    endloop
  endfacet
  facet normal 0.684546 -0.72897 0
    outer loop
      vertex 2.91587 -2.73819 1.5
      vertex 2.5497 -3.08205 -1.5
      vertex 2.91587 -2.73819 -1.5
    endloop
  endfacet
  facet normal 0.587785 -0.809017 0
    outer loop
      vertex 2.14331 -3.37731 -1.5
      vertex 2.5497 -3.08205 1.5
      vertex 2.14331 -3.37731 1.5
    endloop
  endfacet
  facet normal 0.587785 -0.809017 0
    outer loop
      vertex 2.5497 -3.08205 1.5
      vertex 2.14331 -3.37731 -1.5
      vertex 2.5497 -3.08205 -1.5
    endloop
  endfacet
  facet normal 0.481754 -0.876307 0
    outer loop
      vertex 1.70312 -3.61931 -1.5
      vertex 2.14331 -3.37731 1.5
      vertex 1.70312 -3.61931 1.5
    endloop
  endfacet
  facet normal 0.481754 -0.876307 0
    outer loop
      vertex 2.14331 -3.37731 1.5
      vertex 1.70312 -3.61931 -1.5
      vertex 2.14331 -3.37731 -1.5
    endloop
  endfacet
  facet normal 0.904827 -0.42578 0
    outer loop
      vertex 3.50523 -1.92701 1.5
      vertex 3.71911 -1.4725 -1.5
      vertex 3.71911 -1.4725 1.5
    endloop
  endfacet
  facet normal 0.904827 -0.42578 0
    outer loop
      vertex 3.71911 -1.4725 -1.5
      vertex 3.50523 -1.92701 1.5
      vertex 3.50523 -1.92701 -1.5
    endloop
  endfacet
  facet normal -0.125333 -0.992115 0
    outer loop
      vertex -0.749525 -3.92915 -1.5
      vertex -0.251162 -3.99211 1.5
      vertex -0.749525 -3.92915 1.5
    endloop
  endfacet
  facet normal -0.125333 -0.992115 -0
    outer loop
      vertex -0.251162 -3.99211 1.5
      vertex -0.749525 -3.92915 -1.5
      vertex -0.251162 -3.99211 -1.5
    endloop
  endfacet
  facet normal -0.368126 -0.929776 0
    outer loop
      vertex -1.70312 -3.61931 -1.5
      vertex -1.23607 -3.80423 1.5
      vertex -1.70312 -3.61931 1.5
    endloop
  endfacet
  facet normal -0.368126 -0.929776 -0
    outer loop
      vertex -1.23607 -3.80423 1.5
      vertex -1.70312 -3.61931 -1.5
      vertex -1.23607 -3.80423 -1.5
    endloop
  endfacet
  facet normal -0.844328 -0.535826 0
    outer loop
      vertex -3.23607 -2.35114 -1.5
      vertex -3.50523 -1.92701 1.5
      vertex -3.50523 -1.92701 -1.5
    endloop
  endfacet
  facet normal -0.844328 -0.535826 0
    outer loop
      vertex -3.50523 -1.92701 1.5
      vertex -3.23607 -2.35114 -1.5
      vertex -3.23607 -2.35114 1.5
    endloop
  endfacet
  facet normal -0.904827 -0.42578 0
    outer loop
      vertex -3.50523 -1.92701 -1.5
      vertex -3.71911 -1.4725 1.5
      vertex -3.71911 -1.4725 -1.5
    endloop
  endfacet
  facet normal -0.904827 -0.42578 0
    outer loop
      vertex -3.71911 -1.4725 1.5
      vertex -3.50523 -1.92701 -1.5
      vertex -3.50523 -1.92701 1.5
    endloop
  endfacet
  facet normal -0.982287 -0.187381 0
    outer loop
      vertex -3.87433 -0.994759 -1.5
      vertex -3.96846 -0.501332 1.5
      vertex -3.96846 -0.501332 -1.5
    endloop
  endfacet
  facet normal -0.982287 -0.187381 0
    outer loop
      vertex -3.96846 -0.501332 1.5
      vertex -3.87433 -0.994759 -1.5
      vertex -3.87433 -0.994759 1.5
    endloop
  endfacet
  facet normal -0.481754 -0.876307 0
    outer loop
      vertex -2.14331 -3.37731 -1.5
      vertex -1.70312 -3.61931 1.5
      vertex -2.14331 -3.37731 1.5
    endloop
  endfacet
  facet normal -0.481754 -0.876307 -0
    outer loop
      vertex -1.70312 -3.61931 1.5
      vertex -2.14331 -3.37731 -1.5
      vertex -1.70312 -3.61931 -1.5
    endloop
  endfacet
  facet normal -0.587785 -0.809017 0
    outer loop
      vertex -2.5497 -3.08205 -1.5
      vertex -2.14331 -3.37731 1.5
      vertex -2.5497 -3.08205 1.5
    endloop
  endfacet
  facet normal -0.587785 -0.809017 -0
    outer loop
      vertex -2.14331 -3.37731 1.5
      vertex -2.5497 -3.08205 -1.5
      vertex -2.14331 -3.37731 -1.5
    endloop
  endfacet
  facet normal -0.998027 0.0627889 0
    outer loop
      vertex 2.08344 -0.263199 -1.5
      vertex 2.1 0 1.5
      vertex 2.1 0 -1.5
    endloop
  endfacet
  facet normal -0.998027 0.0627889 0
    outer loop
      vertex 2.1 0 1.5
      vertex 2.08344 -0.263199 -1.5
      vertex 2.08344 -0.263199 1.5
    endloop
  endfacet
  facet normal -0.368125 0.929776 0
    outer loop
      vertex 0.894136 -1.90014 -1.5
      vertex 0.648935 -1.99722 1.5
      vertex 0.894136 -1.90014 1.5
    endloop
  endfacet
  facet normal -0.368125 0.929776 0
    outer loop
      vertex 0.648935 -1.99722 1.5
      vertex 0.894136 -1.90014 -1.5
      vertex 0.648935 -1.99722 -1.5
    endloop
  endfacet
  facet normal 0.368125 0.929776 -0
    outer loop
      vertex -0.648935 -1.99722 -1.5
      vertex -0.894136 -1.90014 1.5
      vertex -0.648935 -1.99722 1.5
    endloop
  endfacet
  facet normal 0.368125 0.929776 0
    outer loop
      vertex -0.894136 -1.90014 1.5
      vertex -0.648935 -1.99722 -1.5
      vertex -0.894136 -1.90014 -1.5
    endloop
  endfacet
  facet normal -0.998027 -0.0627889 0
    outer loop
      vertex 2.1 0 -1.5
      vertex 2.08344 0.263199 1.5
      vertex 2.08344 0.263199 -1.5
    endloop
  endfacet
  facet normal -0.998027 -0.0627889 0
    outer loop
      vertex 2.08344 0.263199 1.5
      vertex 2.1 0 -1.5
      vertex 2.1 0 1.5
    endloop
  endfacet
  facet normal -0.904827 0.425778 0
    outer loop
      vertex 1.84024 -1.01168 -1.5
      vertex 1.95253 -0.773061 1.5
      vertex 1.95253 -0.773061 -1.5
    endloop
  endfacet
  facet normal -0.904827 0.425778 0
    outer loop
      vertex 1.95253 -0.773061 1.5
      vertex 1.84024 -1.01168 -1.5
      vertex 1.84024 -1.01168 1.5
    endloop
  endfacet
  facet normal -0.844328 0.535826 0
    outer loop
      vertex 1.69894 -1.23435 -1.5
      vertex 1.84024 -1.01168 1.5
      vertex 1.84024 -1.01168 -1.5
    endloop
  endfacet
  facet normal -0.844328 0.535826 0
    outer loop
      vertex 1.84024 -1.01168 1.5
      vertex 1.69894 -1.23435 -1.5
      vertex 1.69894 -1.23435 1.5
    endloop
  endfacet
  facet normal 0 1 -0
    outer loop
      vertex 0.13186 -2.09586 -1.5
      vertex -0.13186 -2.09586 1.5
      vertex 0.13186 -2.09586 1.5
    endloop
  endfacet
  facet normal 0 1 0
    outer loop
      vertex -0.13186 -2.09586 1.5
      vertex 0.13186 -2.09586 -1.5
      vertex -0.13186 -2.09586 -1.5
    endloop
  endfacet
  facet normal 0.998027 0.0627889 0
    outer loop
      vertex -2.08344 -0.263199 1.5
      vertex -2.1 0 -1.5
      vertex -2.1 0 1.5
    endloop
  endfacet
  facet normal 0.998027 0.0627889 0
    outer loop
      vertex -2.1 0 -1.5
      vertex -2.08344 -0.263199 1.5
      vertex -2.08344 -0.263199 -1.5
    endloop
  endfacet
  facet normal 0.770513 0.637425 0
    outer loop
      vertex -1.53083 -1.43755 1.5
      vertex -1.69894 -1.23435 -1.5
      vertex -1.69894 -1.23435 1.5
    endloop
  endfacet
  facet normal 0.770513 0.637425 0
    outer loop
      vertex -1.69894 -1.23435 -1.5
      vertex -1.53083 -1.43755 1.5
      vertex -1.53083 -1.43755 -1.5
    endloop
  endfacet
  facet normal 0.248689 0.968584 -0
    outer loop
      vertex -0.3935 -2.0628 -1.5
      vertex -0.648935 -1.99722 1.5
      vertex -0.3935 -2.0628 1.5
    endloop
  endfacet
  facet normal 0.248689 0.968584 0
    outer loop
      vertex -0.648935 -1.99722 1.5
      vertex -0.3935 -2.0628 -1.5
      vertex -0.648935 -1.99722 -1.5
    endloop
  endfacet
  facet normal -0.587786 -0.809016 0
    outer loop
      vertex 1.12524 1.77309 -1.5
      vertex 1.33859 1.61808 1.5
      vertex 1.12524 1.77309 1.5
    endloop
  endfacet
  facet normal -0.587786 -0.809016 -0
    outer loop
      vertex 1.33859 1.61808 1.5
      vertex 1.12524 1.77309 -1.5
      vertex 1.33859 1.61808 -1.5
    endloop
  endfacet
  facet normal 0.904827 -0.425778 0
    outer loop
      vertex -1.95253 0.773061 1.5
      vertex -1.84024 1.01168 -1.5
      vertex -1.84024 1.01168 1.5
    endloop
  endfacet
  facet normal 0.904827 -0.425778 0
    outer loop
      vertex -1.84024 1.01168 -1.5
      vertex -1.95253 0.773061 1.5
      vertex -1.95253 0.773061 -1.5
    endloop
  endfacet
  facet normal -0.248689 -0.968584 0
    outer loop
      vertex 0.3935 2.0628 -1.5
      vertex 0.648935 1.99722 1.5
      vertex 0.3935 2.0628 1.5
    endloop
  endfacet
  facet normal -0.248689 -0.968584 -0
    outer loop
      vertex 0.648935 1.99722 1.5
      vertex 0.3935 2.0628 -1.5
      vertex 0.648935 1.99722 -1.5
    endloop
  endfacet
  facet normal -0.684547 0.728969 0
    outer loop
      vertex 1.53083 -1.43755 -1.5
      vertex 1.33859 -1.61808 1.5
      vertex 1.53083 -1.43755 1.5
    endloop
  endfacet
  facet normal -0.684547 0.728969 0
    outer loop
      vertex 1.33859 -1.61808 1.5
      vertex 1.53083 -1.43755 -1.5
      vertex 1.33859 -1.61808 -1.5
    endloop
  endfacet
  facet normal -0.248689 0.968584 0
    outer loop
      vertex 0.648935 -1.99722 -1.5
      vertex 0.3935 -2.0628 1.5
      vertex 0.648935 -1.99722 1.5
    endloop
  endfacet
  facet normal -0.248689 0.968584 0
    outer loop
      vertex 0.3935 -2.0628 1.5
      vertex 0.648935 -1.99722 -1.5
      vertex 0.3935 -2.0628 -1.5
    endloop
  endfacet
  facet normal -0.125335 0.992114 0
    outer loop
      vertex 0.3935 -2.0628 -1.5
      vertex 0.13186 -2.09586 1.5
      vertex 0.3935 -2.0628 1.5
    endloop
  endfacet
  facet normal -0.125335 0.992114 0
    outer loop
      vertex 0.13186 -2.09586 1.5
      vertex 0.3935 -2.0628 -1.5
      vertex 0.13186 -2.09586 -1.5
    endloop
  endfacet
  facet normal -0.587786 0.809016 0
    outer loop
      vertex 1.33859 -1.61808 -1.5
      vertex 1.12524 -1.77309 1.5
      vertex 1.33859 -1.61808 1.5
    endloop
  endfacet
  facet normal -0.587786 0.809016 0
    outer loop
      vertex 1.12524 -1.77309 1.5
      vertex 1.33859 -1.61808 -1.5
      vertex 1.12524 -1.77309 -1.5
    endloop
  endfacet
  facet normal 0.951056 0.309018 0
    outer loop
      vertex -1.95253 -0.773061 1.5
      vertex -2.03402 -0.522248 -1.5
      vertex -2.03402 -0.522248 1.5
    endloop
  endfacet
  facet normal 0.951056 0.309018 0
    outer loop
      vertex -2.03402 -0.522248 -1.5
      vertex -1.95253 -0.773061 1.5
      vertex -1.95253 -0.773061 -1.5
    endloop
  endfacet
  facet normal 0.982287 0.187382 0
    outer loop
      vertex -2.03402 -0.522248 1.5
      vertex -2.08344 -0.263199 -1.5
      vertex -2.08344 -0.263199 1.5
    endloop
  endfacet
  facet normal 0.982287 0.187382 0
    outer loop
      vertex -2.08344 -0.263199 -1.5
      vertex -2.03402 -0.522248 1.5
      vertex -2.03402 -0.522248 -1.5
    endloop
  endfacet
  facet normal 0.125335 0.992114 -0
    outer loop
      vertex -0.13186 -2.09586 -1.5
      vertex -0.3935 -2.0628 1.5
      vertex -0.13186 -2.09586 1.5
    endloop
  endfacet
  facet normal 0.125335 0.992114 0
    outer loop
      vertex -0.3935 -2.0628 1.5
      vertex -0.13186 -2.09586 -1.5
      vertex -0.3935 -2.0628 -1.5
    endloop
  endfacet
  facet normal 0.481753 0.876307 -0
    outer loop
      vertex -0.894136 -1.90014 -1.5
      vertex -1.12524 -1.77309 1.5
      vertex -0.894136 -1.90014 1.5
    endloop
  endfacet
  facet normal 0.481753 0.876307 0
    outer loop
      vertex -1.12524 -1.77309 1.5
      vertex -0.894136 -1.90014 -1.5
      vertex -1.12524 -1.77309 -1.5
    endloop
  endfacet
  facet normal 0.684547 0.728969 -0
    outer loop
      vertex -1.33859 -1.61808 -1.5
      vertex -1.53083 -1.43755 1.5
      vertex -1.33859 -1.61808 1.5
    endloop
  endfacet
  facet normal 0.684547 0.728969 0
    outer loop
      vertex -1.53083 -1.43755 1.5
      vertex -1.33859 -1.61808 -1.5
      vertex -1.53083 -1.43755 -1.5
    endloop
  endfacet
  facet normal -0.982287 -0.187382 0
    outer loop
      vertex 2.08344 0.263199 -1.5
      vertex 2.03402 0.522248 1.5
      vertex 2.03402 0.522248 -1.5
    endloop
  endfacet
  facet normal -0.982287 -0.187382 0
    outer loop
      vertex 2.03402 0.522248 1.5
      vertex 2.08344 0.263199 -1.5
      vertex 2.08344 0.263199 1.5
    endloop
  endfacet
  facet normal 0.998027 -0.0627889 0
    outer loop
      vertex -2.1 0 1.5
      vertex -2.08344 0.263199 -1.5
      vertex -2.08344 0.263199 1.5
    endloop
  endfacet
  facet normal 0.998027 -0.0627889 0
    outer loop
      vertex -2.08344 0.263199 -1.5
      vertex -2.1 0 1.5
      vertex -2.1 0 -1.5
    endloop
  endfacet
  facet normal 0.770513 -0.637425 0
    outer loop
      vertex -1.69894 1.23435 1.5
      vertex -1.53083 1.43755 -1.5
      vertex -1.53083 1.43755 1.5
    endloop
  endfacet
  facet normal 0.770513 -0.637425 0
    outer loop
      vertex -1.53083 1.43755 -1.5
      vertex -1.69894 1.23435 1.5
      vertex -1.69894 1.23435 -1.5
    endloop
  endfacet
  facet normal 0 -1 0
    outer loop
      vertex -0.13186 2.09586 -1.5
      vertex 0.13186 2.09586 1.5
      vertex -0.13186 2.09586 1.5
    endloop
  endfacet
  facet normal 0 -1 -0
    outer loop
      vertex 0.13186 2.09586 1.5
      vertex -0.13186 2.09586 -1.5
      vertex 0.13186 2.09586 -1.5
    endloop
  endfacet
  facet normal -0.951056 0.309018 0
    outer loop
      vertex 1.95253 -0.773061 -1.5
      vertex 2.03402 -0.522248 1.5
      vertex 2.03402 -0.522248 -1.5
    endloop
  endfacet
  facet normal -0.951056 0.309018 0
    outer loop
      vertex 2.03402 -0.522248 1.5
      vertex 1.95253 -0.773061 -1.5
      vertex 1.95253 -0.773061 1.5
    endloop
  endfacet
  facet normal -0.982287 0.187382 0
    outer loop
      vertex 2.03402 -0.522248 -1.5
      vertex 2.08344 -0.263199 1.5
      vertex 2.08344 -0.263199 -1.5
    endloop
  endfacet
  facet normal -0.982287 0.187382 0
    outer loop
      vertex 2.08344 -0.263199 1.5
      vertex 2.03402 -0.522248 -1.5
      vertex 2.03402 -0.522248 1.5
    endloop
  endfacet
  facet normal -0.770513 0.637425 0
    outer loop
      vertex 1.53083 -1.43755 -1.5
      vertex 1.69894 -1.23435 1.5
      vertex 1.69894 -1.23435 -1.5
    endloop
  endfacet
  facet normal -0.770513 0.637425 0
    outer loop
      vertex 1.69894 -1.23435 1.5
      vertex 1.53083 -1.43755 -1.5
      vertex 1.53083 -1.43755 1.5
    endloop
  endfacet
  facet normal -0.481753 0.876307 0
    outer loop
      vertex 1.12524 -1.77309 -1.5
      vertex 0.894136 -1.90014 1.5
      vertex 1.12524 -1.77309 1.5
    endloop
  endfacet
  facet normal -0.481753 0.876307 0
    outer loop
      vertex 0.894136 -1.90014 1.5
      vertex 1.12524 -1.77309 -1.5
      vertex 0.894136 -1.90014 -1.5
    endloop
  endfacet
  facet normal 0.844328 0.535826 0
    outer loop
      vertex -1.69894 -1.23435 1.5
      vertex -1.84024 -1.01168 -1.5
      vertex -1.84024 -1.01168 1.5
    endloop
  endfacet
  facet normal 0.844328 0.535826 0
    outer loop
      vertex -1.84024 -1.01168 -1.5
      vertex -1.69894 -1.23435 1.5
      vertex -1.69894 -1.23435 -1.5
    endloop
  endfacet
  facet normal 0.904827 0.425778 0
    outer loop
      vertex -1.84024 -1.01168 1.5
      vertex -1.95253 -0.773061 -1.5
      vertex -1.95253 -0.773061 1.5
    endloop
  endfacet
  facet normal 0.904827 0.425778 0
    outer loop
      vertex -1.95253 -0.773061 -1.5
      vertex -1.84024 -1.01168 1.5
      vertex -1.84024 -1.01168 -1.5
    endloop
  endfacet
  facet normal 0.587786 0.809016 -0
    outer loop
      vertex -1.12524 -1.77309 -1.5
      vertex -1.33859 -1.61808 1.5
      vertex -1.12524 -1.77309 1.5
    endloop
  endfacet
  facet normal 0.587786 0.809016 0
    outer loop
      vertex -1.33859 -1.61808 1.5
      vertex -1.12524 -1.77309 -1.5
      vertex -1.33859 -1.61808 -1.5
    endloop
  endfacet
  facet normal -0.904827 -0.425778 0
    outer loop
      vertex 1.95253 0.773061 -1.5
      vertex 1.84024 1.01168 1.5
      vertex 1.84024 1.01168 -1.5
    endloop
  endfacet
  facet normal -0.904827 -0.425778 0
    outer loop
      vertex 1.84024 1.01168 1.5
      vertex 1.95253 0.773061 -1.5
      vertex 1.95253 0.773061 1.5
    endloop
  endfacet
  facet normal -0.684547 -0.728969 0
    outer loop
      vertex 1.33859 1.61808 -1.5
      vertex 1.53083 1.43755 1.5
      vertex 1.33859 1.61808 1.5
    endloop
  endfacet
  facet normal -0.684547 -0.728969 -0
    outer loop
      vertex 1.53083 1.43755 1.5
      vertex 1.33859 1.61808 -1.5
      vertex 1.53083 1.43755 -1.5
    endloop
  endfacet
  facet normal -0.770513 -0.637425 0
    outer loop
      vertex 1.69894 1.23435 -1.5
      vertex 1.53083 1.43755 1.5
      vertex 1.53083 1.43755 -1.5
    endloop
  endfacet
  facet normal -0.770513 -0.637425 0
    outer loop
      vertex 1.53083 1.43755 1.5
      vertex 1.69894 1.23435 -1.5
      vertex 1.69894 1.23435 1.5
    endloop
  endfacet
  facet normal -0.844328 -0.535826 0
    outer loop
      vertex 1.84024 1.01168 -1.5
      vertex 1.69894 1.23435 1.5
      vertex 1.69894 1.23435 -1.5
    endloop
  endfacet
  facet normal -0.844328 -0.535826 0
    outer loop
      vertex 1.69894 1.23435 1.5
      vertex 1.84024 1.01168 -1.5
      vertex 1.84024 1.01168 1.5
    endloop
  endfacet
  facet normal 0.587786 -0.809016 0
    outer loop
      vertex -1.33859 1.61808 -1.5
      vertex -1.12524 1.77309 1.5
      vertex -1.33859 1.61808 1.5
    endloop
  endfacet
  facet normal 0.587786 -0.809016 0
    outer loop
      vertex -1.12524 1.77309 1.5
      vertex -1.33859 1.61808 -1.5
      vertex -1.12524 1.77309 -1.5
    endloop
  endfacet
  facet normal 0.368125 -0.929776 0
    outer loop
      vertex -0.894136 1.90014 -1.5
      vertex -0.648935 1.99722 1.5
      vertex -0.894136 1.90014 1.5
    endloop
  endfacet
  facet normal 0.368125 -0.929776 0
    outer loop
      vertex -0.648935 1.99722 1.5
      vertex -0.894136 1.90014 -1.5
      vertex -0.648935 1.99722 -1.5
    endloop
  endfacet
  facet normal 0.951056 -0.309018 0
    outer loop
      vertex -2.03402 0.522248 1.5
      vertex -1.95253 0.773061 -1.5
      vertex -1.95253 0.773061 1.5
    endloop
  endfacet
  facet normal 0.951056 -0.309018 0
    outer loop
      vertex -1.95253 0.773061 -1.5
      vertex -2.03402 0.522248 1.5
      vertex -2.03402 0.522248 -1.5
    endloop
  endfacet
  facet normal 0.982287 -0.187382 0
    outer loop
      vertex -2.08344 0.263199 1.5
      vertex -2.03402 0.522248 -1.5
      vertex -2.03402 0.522248 1.5
    endloop
  endfacet
  facet normal 0.982287 -0.187382 0
    outer loop
      vertex -2.03402 0.522248 -1.5
      vertex -2.08344 0.263199 1.5
      vertex -2.08344 0.263199 -1.5
    endloop
  endfacet
  facet normal 0.844328 -0.535826 0
    outer loop
      vertex -1.84024 1.01168 1.5
      vertex -1.69894 1.23435 -1.5
      vertex -1.69894 1.23435 1.5
    endloop
  endfacet
  facet normal 0.844328 -0.535826 0
    outer loop
      vertex -1.69894 1.23435 -1.5
      vertex -1.84024 1.01168 1.5
      vertex -1.84024 1.01168 -1.5
    endloop
  endfacet
  facet normal -0.125335 -0.992114 0
    outer loop
      vertex 0.13186 2.09586 -1.5
      vertex 0.3935 2.0628 1.5
      vertex 0.13186 2.09586 1.5
    endloop
  endfacet
  facet normal -0.125335 -0.992114 -0
    outer loop
      vertex 0.3935 2.0628 1.5
      vertex 0.13186 2.09586 -1.5
      vertex 0.3935 2.0628 -1.5
    endloop
  endfacet
  facet normal -0.368125 -0.929776 0
    outer loop
      vertex 0.648935 1.99722 -1.5
      vertex 0.894136 1.90014 1.5
      vertex 0.648935 1.99722 1.5
    endloop
  endfacet
  facet normal -0.368125 -0.929776 -0
    outer loop
      vertex 0.894136 1.90014 1.5
      vertex 0.648935 1.99722 -1.5
      vertex 0.894136 1.90014 -1.5
    endloop
  endfacet
  facet normal -0.481753 -0.876307 0
    outer loop
      vertex 0.894136 1.90014 -1.5
      vertex 1.12524 1.77309 1.5
      vertex 0.894136 1.90014 1.5
    endloop
  endfacet
  facet normal -0.481753 -0.876307 -0
    outer loop
      vertex 1.12524 1.77309 1.5
      vertex 0.894136 1.90014 -1.5
      vertex 1.12524 1.77309 -1.5
    endloop
  endfacet
  facet normal -0.951056 -0.309018 0
    outer loop
      vertex 2.03402 0.522248 -1.5
      vertex 1.95253 0.773061 1.5
      vertex 1.95253 0.773061 -1.5
    endloop
  endfacet
  facet normal -0.951056 -0.309018 0
    outer loop
      vertex 1.95253 0.773061 1.5
      vertex 2.03402 0.522248 -1.5
      vertex 2.03402 0.522248 1.5
    endloop
  endfacet
  facet normal 0.684547 -0.728969 0
    outer loop
      vertex -1.53083 1.43755 -1.5
      vertex -1.33859 1.61808 1.5
      vertex -1.53083 1.43755 1.5
    endloop
  endfacet
  facet normal 0.684547 -0.728969 0
    outer loop
      vertex -1.33859 1.61808 1.5
      vertex -1.53083 1.43755 -1.5
      vertex -1.33859 1.61808 -1.5
    endloop
  endfacet
  facet normal 0.481753 -0.876307 0
    outer loop
      vertex -1.12524 1.77309 -1.5
      vertex -0.894136 1.90014 1.5
      vertex -1.12524 1.77309 1.5
    endloop
  endfacet
  facet normal 0.481753 -0.876307 0
    outer loop
      vertex -0.894136 1.90014 1.5
      vertex -1.12524 1.77309 -1.5
      vertex -0.894136 1.90014 -1.5
    endloop
  endfacet
  facet normal 0.248689 -0.968584 0
    outer loop
      vertex -0.648935 1.99722 -1.5
      vertex -0.3935 2.0628 1.5
      vertex -0.648935 1.99722 1.5
    endloop
  endfacet
  facet normal 0.248689 -0.968584 0
    outer loop
      vertex -0.3935 2.0628 1.5
      vertex -0.648935 1.99722 -1.5
      vertex -0.3935 2.0628 -1.5
    endloop
  endfacet
  facet normal 0.125335 -0.992114 0
    outer loop
      vertex -0.3935 2.0628 -1.5
      vertex -0.13186 2.09586 1.5
      vertex -0.3935 2.0628 1.5
    endloop
  endfacet
  facet normal 0.125335 -0.992114 0
    outer loop
      vertex -0.13186 2.09586 1.5
      vertex -0.3935 2.0628 -1.5
      vertex -0.13186 2.09586 -1.5
    endloop
  endfacet
endsolid OpenSCAD_Model
